<svg width="1427" height="1437" viewBox="0 0 1427 1437" fill="none" xmlns="http://www.w3.org/2000/svg">
<g filter="url(#filter0_iiii_498_3465)">
<path d="M474.669 1284.55C388.814 1231.64 458.286 1077.47 389.779 1003.97C300.145 907.805 112.059 937.269 45.7176 824.333C-21.6163 709.708 5.62303 558.339 56.4128 436.471C111.345 304.661 205.133 179.63 337.961 123.104C469.227 67.2435 624.619 87.7873 759.143 137.422C878.344 181.403 943.452 299.515 1039.52 381.954C1132.39 461.654 1274.23 499.485 1314.44 613.972C1354.73 728.657 1309.78 860.971 1243.44 962.519C1184.76 1052.33 1070.8 1081.56 975.557 1132.71C902.781 1171.8 830.622 1202.78 751.319 1226.82C659.413 1254.68 556.573 1335.04 474.669 1284.55Z" fill="#F5F5F5"/>
</g>
<defs>
<filter id="filter0_iiii_498_3465" x="-107" y="0" width="1533.69" height="1452.04" filterUnits="userSpaceOnUse" color-interpolation-filters="sRGB">
<feFlood flood-opacity="0" result="BackgroundImageFix"/>
<feBlend mode="normal" in="SourceGraphic" in2="BackgroundImageFix" result="shape"/>
<feColorMatrix in="SourceAlpha" type="matrix" values="0 0 0 0 0 0 0 0 0 0 0 0 0 0 0 0 0 0 127 0" result="hardAlpha"/>
<feOffset dy="16"/>
<feGaussianBlur stdDeviation="16"/>
<feComposite in2="hardAlpha" operator="arithmetic" k2="-1" k3="1"/>
<feColorMatrix type="matrix" values="0 0 0 0 0 0 0 0 0 0 0 0 0 0 0 0 0 0 0.16 0"/>
<feBlend mode="normal" in2="shape" result="effect1_innerShadow_498_3465"/>
<feColorMatrix in="SourceAlpha" type="matrix" values="0 0 0 0 0 0 0 0 0 0 0 0 0 0 0 0 0 0 127 0" result="hardAlpha"/>
<feOffset dy="8"/>
<feGaussianBlur stdDeviation="8"/>
<feComposite in2="hardAlpha" operator="arithmetic" k2="-1" k3="1"/>
<feColorMatrix type="matrix" values="0 0 0 0 0 0 0 0 0 0 0 0 0 0 0 0 0 0 0.12 0"/>
<feBlend mode="normal" in2="effect1_innerShadow_498_3465" result="effect2_innerShadow_498_3465"/>
<feColorMatrix in="SourceAlpha" type="matrix" values="0 0 0 0 0 0 0 0 0 0 0 0 0 0 0 0 0 0 127 0" result="hardAlpha"/>
<feOffset dy="4"/>
<feGaussianBlur stdDeviation="4"/>
<feComposite in2="hardAlpha" operator="arithmetic" k2="-1" k3="1"/>
<feColorMatrix type="matrix" values="0 0 0 0 0 0 0 0 0 0 0 0 0 0 0 0 0 0 0.12 0"/>
<feBlend mode="normal" in2="effect2_innerShadow_498_3465" result="effect3_innerShadow_498_3465"/>
<feColorMatrix in="SourceAlpha" type="matrix" values="0 0 0 0 0 0 0 0 0 0 0 0 0 0 0 0 0 0 127 0" result="hardAlpha"/>
<feOffset dy="2"/>
<feGaussianBlur stdDeviation="2"/>
<feComposite in2="hardAlpha" operator="arithmetic" k2="-1" k3="1"/>
<feColorMatrix type="matrix" values="0 0 0 0 0 0 0 0 0 0 0 0 0 0 0 0 0 0 0.12 0"/>
<feBlend mode="normal" in2="effect3_innerShadow_498_3465" result="effect4_innerShadow_498_3465"/>
</filter>
</defs>
</svg>
