<svg width="335" height="566" viewBox="0 0 335 566" fill="none" xmlns="http://www.w3.org/2000/svg">
<g clip-path="url(#clip0_495_5897)">
<path fill-rule="evenodd" clip-rule="evenodd" d="M51.6975 516C45.987 516 41.358 511.523 41.358 506C41.358 500.477 45.987 496 51.6975 496C57.408 496 62.037 500.477 62.037 506C67.7475 506 72.3765 510.477 72.3765 516C72.3765 521.523 67.7475 526 62.037 526C56.3265 526 51.6975 521.523 51.6975 516ZM10.3395 556C4.629 556 0 551.523 0 546C0 540.477 4.629 536 10.3395 536C16.05 536 20.679 540.477 20.679 546C26.3895 546 31.0185 550.477 31.0185 556C31.0185 561.523 26.3895 566 20.679 566C14.9685 566 10.3395 561.523 10.3395 556ZM18.6111 546C18.6111 541.582 14.9075 538 10.3395 538C5.77151 538 2.0679 541.582 2.0679 546C2.0679 550.418 5.77151 554 10.3395 554C14.9075 554 18.6111 550.418 18.6111 546ZM59.9691 506C59.9691 501.582 56.2655 498 51.6975 498C47.1295 498 43.4259 501.582 43.4259 506C43.4259 510.418 47.1295 514 51.6975 514C56.2655 514 59.9691 510.418 59.9691 506Z" fill="black"/>
<path fill-rule="evenodd" clip-rule="evenodd" d="M51.6975 434C45.987 434 41.358 429.523 41.358 424C41.358 418.477 45.987 414 51.6975 414C57.408 414 62.037 418.477 62.037 424C67.7475 424 72.3765 428.477 72.3765 434C72.3765 439.523 67.7475 444 62.037 444C56.3265 444 51.6975 439.523 51.6975 434ZM10.3395 474C4.629 474 0 469.523 0 464C0 458.477 4.629 454 10.3395 454C16.05 454 20.679 458.477 20.679 464C26.3895 464 31.0185 468.477 31.0185 474C31.0185 479.523 26.3895 484 20.679 484C14.9685 484 10.3395 479.523 10.3395 474ZM18.6111 464C18.6111 459.582 14.9075 456 10.3395 456C5.77151 456 2.0679 459.582 2.0679 464C2.0679 468.418 5.77151 472 10.3395 472C14.9075 472 18.6111 468.418 18.6111 464ZM59.9691 424C59.9691 419.582 56.2655 416 51.6975 416C47.1295 416 43.4259 419.582 43.4259 424C43.4259 428.418 47.1295 432 51.6975 432C56.2655 432 59.9691 428.418 59.9691 424Z" fill="black"/>
<path fill-rule="evenodd" clip-rule="evenodd" d="M51.6975 352C45.987 352 41.358 347.523 41.358 342C41.358 336.477 45.987 332 51.6975 332C57.408 332 62.037 336.477 62.037 342C67.7475 342 72.3765 346.477 72.3765 352C72.3765 357.523 67.7475 362 62.037 362C56.3265 362 51.6975 357.523 51.6975 352ZM10.3395 392C4.629 392 0 387.523 0 382C0 376.477 4.629 372 10.3395 372C16.05 372 20.679 376.477 20.679 382C26.3895 382 31.0185 386.477 31.0185 392C31.0185 397.523 26.3895 402 20.679 402C14.9685 402 10.3395 397.523 10.3395 392ZM18.6111 382C18.6111 377.582 14.9075 374 10.3395 374C5.77151 374 2.0679 377.582 2.0679 382C2.0679 386.418 5.77151 390 10.3395 390C14.9075 390 18.6111 386.418 18.6111 382ZM59.9691 342C59.9691 337.582 56.2655 334 51.6975 334C47.1295 334 43.4259 337.582 43.4259 342C43.4259 346.418 47.1295 350 51.6975 350C56.2655 350 59.9691 346.418 59.9691 342Z" fill="black"/>
<path fill-rule="evenodd" clip-rule="evenodd" d="M51.6975 270C45.987 270 41.358 265.523 41.358 260C41.358 254.477 45.987 250 51.6975 250C57.408 250 62.037 254.477 62.037 260C67.7475 260 72.3765 264.477 72.3765 270C72.3765 275.523 67.7475 280 62.037 280C56.3265 280 51.6975 275.523 51.6975 270ZM10.3395 310C4.629 310 0 305.523 0 300C0 294.477 4.629 290 10.3395 290C16.05 290 20.679 294.477 20.679 300C26.3895 300 31.0185 304.477 31.0185 310C31.0185 315.523 26.3895 320 20.679 320C14.9685 320 10.3395 315.523 10.3395 310ZM18.6111 300C18.6111 295.582 14.9075 292 10.3395 292C5.77151 292 2.0679 295.582 2.0679 300C2.0679 304.418 5.77151 308 10.3395 308C14.9075 308 18.6111 304.418 18.6111 300ZM59.9691 260C59.9691 255.582 56.2655 252 51.6975 252C47.1295 252 43.4259 255.582 43.4259 260C43.4259 264.418 47.1295 268 51.6975 268C56.2655 268 59.9691 264.418 59.9691 260Z" fill="black"/>
<path fill-rule="evenodd" clip-rule="evenodd" d="M51.6975 188C45.987 188 41.358 183.523 41.358 178C41.358 172.477 45.987 168 51.6975 168C57.408 168 62.037 172.477 62.037 178C67.7475 178 72.3765 182.477 72.3765 188C72.3765 193.523 67.7475 198 62.037 198C56.3265 198 51.6975 193.523 51.6975 188ZM10.3395 228C4.629 228 0 223.523 0 218C0 212.477 4.629 208 10.3395 208C16.05 208 20.679 212.477 20.679 218C26.3895 218 31.0185 222.477 31.0185 228C31.0185 233.523 26.3895 238 20.679 238C14.9685 238 10.3395 233.523 10.3395 228ZM18.6111 218C18.6111 213.582 14.9075 210 10.3395 210C5.77151 210 2.0679 213.582 2.0679 218C2.0679 222.418 5.77151 226 10.3395 226C14.9075 226 18.6111 222.418 18.6111 218ZM59.9691 178C59.9691 173.582 56.2655 170 51.6975 170C47.1295 170 43.4259 173.582 43.4259 178C43.4259 182.418 47.1295 186 51.6975 186C56.2655 186 59.9691 182.418 59.9691 178Z" fill="black"/>
<path fill-rule="evenodd" clip-rule="evenodd" d="M51.6975 106C45.987 106 41.358 101.523 41.358 96C41.358 90.477 45.987 86 51.6975 86C57.408 86 62.037 90.477 62.037 96C67.7475 96 72.3765 100.477 72.3765 106C72.3765 111.523 67.7475 116 62.037 116C56.3265 116 51.6975 111.523 51.6975 106ZM10.3395 146C4.629 146 0 141.523 0 136C0 130.477 4.629 126 10.3395 126C16.05 126 20.679 130.477 20.679 136C26.3895 136 31.0185 140.477 31.0185 146C31.0185 151.523 26.3895 156 20.679 156C14.9685 156 10.3395 151.523 10.3395 146ZM18.6111 136C18.6111 131.582 14.9075 128 10.3395 128C5.77151 128 2.0679 131.582 2.0679 136C2.0679 140.418 5.77151 144 10.3395 144C14.9075 144 18.6111 140.418 18.6111 136ZM59.9691 96C59.9691 91.582 56.2655 88 51.6975 88C47.1295 88 43.4259 91.582 43.4259 96C43.4259 100.418 47.1295 104 51.6975 104C56.2655 104 59.9691 100.418 59.9691 96Z" fill="black"/>
<path fill-rule="evenodd" clip-rule="evenodd" d="M136.482 516C130.771 516 126.142 511.523 126.142 506C126.142 500.477 130.771 496 136.482 496C142.192 496 146.821 500.477 146.821 506C152.532 506 157.161 510.477 157.161 516C157.161 521.523 152.532 526 146.821 526C141.111 526 136.482 521.523 136.482 516ZM95.1237 556C89.4132 556 84.7842 551.523 84.7842 546C84.7842 540.477 89.4132 536 95.1237 536C100.834 536 105.463 540.477 105.463 546C111.174 546 115.803 550.477 115.803 556C115.803 561.523 111.174 566 105.463 566C99.7527 566 95.1237 561.523 95.1237 556ZM103.395 546C103.395 541.582 99.6917 538 95.1237 538C90.5557 538 86.8521 541.582 86.8521 546C86.8521 550.418 90.5557 554 95.1237 554C99.6917 554 103.395 550.418 103.395 546ZM144.753 506C144.753 501.582 141.05 498 136.482 498C131.914 498 128.21 501.582 128.21 506C128.21 510.418 131.914 514 136.482 514C141.05 514 144.753 510.418 144.753 506Z" fill="black"/>
<path fill-rule="evenodd" clip-rule="evenodd" d="M136.482 434C130.771 434 126.142 429.523 126.142 424C126.142 418.477 130.771 414 136.482 414C142.192 414 146.821 418.477 146.821 424C152.532 424 157.161 428.477 157.161 434C157.161 439.523 152.532 444 146.821 444C141.111 444 136.482 439.523 136.482 434ZM95.1237 474C89.4132 474 84.7842 469.523 84.7842 464C84.7842 458.477 89.4132 454 95.1237 454C100.834 454 105.463 458.477 105.463 464C111.174 464 115.803 468.477 115.803 474C115.803 479.523 111.174 484 105.463 484C99.7527 484 95.1237 479.523 95.1237 474ZM103.395 464C103.395 459.582 99.6917 456 95.1237 456C90.5557 456 86.8521 459.582 86.8521 464C86.8521 468.418 90.5557 472 95.1237 472C99.6917 472 103.395 468.418 103.395 464ZM144.753 424C144.753 419.582 141.05 416 136.482 416C131.914 416 128.21 419.582 128.21 424C128.21 428.418 131.914 432 136.482 432C141.05 432 144.753 428.418 144.753 424Z" fill="black"/>
<path fill-rule="evenodd" clip-rule="evenodd" d="M136.482 352C130.771 352 126.142 347.523 126.142 342C126.142 336.477 130.771 332 136.482 332C142.192 332 146.821 336.477 146.821 342C152.532 342 157.161 346.477 157.161 352C157.161 357.523 152.532 362 146.821 362C141.111 362 136.482 357.523 136.482 352ZM95.1237 392C89.4132 392 84.7842 387.523 84.7842 382C84.7842 376.477 89.4132 372 95.1237 372C100.834 372 105.463 376.477 105.463 382C111.174 382 115.803 386.477 115.803 392C115.803 397.523 111.174 402 105.463 402C99.7527 402 95.1237 397.523 95.1237 392ZM103.395 382C103.395 377.582 99.6917 374 95.1237 374C90.5557 374 86.8521 377.582 86.8521 382C86.8521 386.418 90.5557 390 95.1237 390C99.6917 390 103.395 386.418 103.395 382ZM144.753 342C144.753 337.582 141.05 334 136.482 334C131.914 334 128.21 337.582 128.21 342C128.21 346.418 131.914 350 136.482 350C141.05 350 144.753 346.418 144.753 342Z" fill="black"/>
<path fill-rule="evenodd" clip-rule="evenodd" d="M136.482 270C130.771 270 126.142 265.523 126.142 260C126.142 254.477 130.771 250 136.482 250C142.192 250 146.821 254.477 146.821 260C152.532 260 157.161 264.477 157.161 270C157.161 275.523 152.532 280 146.821 280C141.111 280 136.482 275.523 136.482 270ZM95.1237 310C89.4132 310 84.7842 305.523 84.7842 300C84.7842 294.477 89.4132 290 95.1237 290C100.834 290 105.463 294.477 105.463 300C111.174 300 115.803 304.477 115.803 310C115.803 315.523 111.174 320 105.463 320C99.7527 320 95.1237 315.523 95.1237 310ZM103.395 300C103.395 295.582 99.6917 292 95.1237 292C90.5557 292 86.8521 295.582 86.8521 300C86.8521 304.418 90.5557 308 95.1237 308C99.6917 308 103.395 304.418 103.395 300ZM144.753 260C144.753 255.582 141.05 252 136.482 252C131.914 252 128.21 255.582 128.21 260C128.21 264.418 131.914 268 136.482 268C141.05 268 144.753 264.418 144.753 260Z" fill="black"/>
<path fill-rule="evenodd" clip-rule="evenodd" d="M136.482 188C130.771 188 126.142 183.523 126.142 178C126.142 172.477 130.771 168 136.482 168C142.192 168 146.821 172.477 146.821 178C152.532 178 157.161 182.477 157.161 188C157.161 193.523 152.532 198 146.821 198C141.111 198 136.482 193.523 136.482 188ZM95.1237 228C89.4132 228 84.7842 223.523 84.7842 218C84.7842 212.477 89.4132 208 95.1237 208C100.834 208 105.463 212.477 105.463 218C111.174 218 115.803 222.477 115.803 228C115.803 233.523 111.174 238 105.463 238C99.7527 238 95.1237 233.523 95.1237 228ZM103.395 218C103.395 213.582 99.6917 210 95.1237 210C90.5557 210 86.8521 213.582 86.8521 218C86.8521 222.418 90.5557 226 95.1237 226C99.6917 226 103.395 222.418 103.395 218ZM144.753 178C144.753 173.582 141.05 170 136.482 170C131.914 170 128.21 173.582 128.21 178C128.21 182.418 131.914 186 136.482 186C141.05 186 144.753 182.418 144.753 178Z" fill="black"/>
<path fill-rule="evenodd" clip-rule="evenodd" d="M136.482 106C130.771 106 126.142 101.523 126.142 96C126.142 90.477 130.771 86 136.482 86C142.192 86 146.821 90.477 146.821 96C152.532 96 157.161 100.477 157.161 106C157.161 111.523 152.532 116 146.821 116C141.111 116 136.482 111.523 136.482 106ZM95.1237 146C89.4132 146 84.7842 141.523 84.7842 136C84.7842 130.477 89.4132 126 95.1237 126C100.834 126 105.463 130.477 105.463 136C111.174 136 115.803 140.477 115.803 146C115.803 151.523 111.174 156 105.463 156C99.7527 156 95.1237 151.523 95.1237 146ZM103.395 136C103.395 131.582 99.6917 128 95.1237 128C90.5557 128 86.8521 131.582 86.8521 136C86.8521 140.418 90.5557 144 95.1237 144C99.6917 144 103.395 140.418 103.395 136ZM144.753 96C144.753 91.582 141.05 88 136.482 88C131.914 88 128.21 91.582 128.21 96C128.21 100.418 131.914 104 136.482 104C141.05 104 144.753 100.418 144.753 96Z" fill="black"/>
<path fill-rule="evenodd" clip-rule="evenodd" d="M221.265 516C215.555 516 210.926 511.523 210.926 506C210.926 500.477 215.555 496 221.265 496C226.976 496 231.605 500.477 231.605 506C237.315 506 241.944 510.477 241.944 516C241.944 521.523 237.315 526 231.605 526C225.894 526 221.265 521.523 221.265 516ZM179.907 556C174.197 556 169.568 551.523 169.568 546C169.568 540.477 174.197 536 179.907 536C185.618 536 190.247 540.477 190.247 546C195.957 546 200.586 550.477 200.586 556C200.586 561.523 195.957 566 190.247 566C184.536 566 179.907 561.523 179.907 556ZM188.179 546C188.179 541.582 184.475 538 179.907 538C175.339 538 171.636 541.582 171.636 546C171.636 550.418 175.339 554 179.907 554C184.475 554 188.179 550.418 188.179 546ZM229.537 506C229.537 501.582 225.833 498 221.265 498C216.697 498 212.994 501.582 212.994 506C212.994 510.418 216.697 514 221.265 514C225.833 514 229.537 510.418 229.537 506Z" fill="black"/>
<path fill-rule="evenodd" clip-rule="evenodd" d="M221.265 434C215.555 434 210.926 429.523 210.926 424C210.926 418.477 215.555 414 221.265 414C226.976 414 231.605 418.477 231.605 424C237.315 424 241.944 428.477 241.944 434C241.944 439.523 237.315 444 231.605 444C225.894 444 221.265 439.523 221.265 434ZM179.907 474C174.197 474 169.568 469.523 169.568 464C169.568 458.477 174.197 454 179.907 454C185.618 454 190.247 458.477 190.247 464C195.957 464 200.586 468.477 200.586 474C200.586 479.523 195.957 484 190.247 484C184.536 484 179.907 479.523 179.907 474ZM188.179 464C188.179 459.582 184.475 456 179.907 456C175.339 456 171.636 459.582 171.636 464C171.636 468.418 175.339 472 179.907 472C184.475 472 188.179 468.418 188.179 464ZM229.537 424C229.537 419.582 225.833 416 221.265 416C216.697 416 212.994 419.582 212.994 424C212.994 428.418 216.697 432 221.265 432C225.833 432 229.537 428.418 229.537 424Z" fill="black"/>
<path fill-rule="evenodd" clip-rule="evenodd" d="M221.265 352C215.555 352 210.926 347.523 210.926 342C210.926 336.477 215.555 332 221.265 332C226.976 332 231.605 336.477 231.605 342C237.315 342 241.944 346.477 241.944 352C241.944 357.523 237.315 362 231.605 362C225.894 362 221.265 357.523 221.265 352ZM179.907 392C174.197 392 169.568 387.523 169.568 382C169.568 376.477 174.197 372 179.907 372C185.618 372 190.247 376.477 190.247 382C195.957 382 200.586 386.477 200.586 392C200.586 397.523 195.957 402 190.247 402C184.536 402 179.907 397.523 179.907 392ZM188.179 382C188.179 377.582 184.475 374 179.907 374C175.339 374 171.636 377.582 171.636 382C171.636 386.418 175.339 390 179.907 390C184.475 390 188.179 386.418 188.179 382ZM229.537 342C229.537 337.582 225.833 334 221.265 334C216.697 334 212.994 337.582 212.994 342C212.994 346.418 216.697 350 221.265 350C225.833 350 229.537 346.418 229.537 342Z" fill="black"/>
<path fill-rule="evenodd" clip-rule="evenodd" d="M221.265 270C215.555 270 210.926 265.523 210.926 260C210.926 254.477 215.555 250 221.265 250C226.976 250 231.605 254.477 231.605 260C237.315 260 241.944 264.477 241.944 270C241.944 275.523 237.315 280 231.605 280C225.894 280 221.265 275.523 221.265 270ZM179.907 310C174.197 310 169.568 305.523 169.568 300C169.568 294.477 174.197 290 179.907 290C185.618 290 190.247 294.477 190.247 300C195.957 300 200.586 304.477 200.586 310C200.586 315.523 195.957 320 190.247 320C184.536 320 179.907 315.523 179.907 310ZM188.179 300C188.179 295.582 184.475 292 179.907 292C175.339 292 171.636 295.582 171.636 300C171.636 304.418 175.339 308 179.907 308C184.475 308 188.179 304.418 188.179 300ZM229.537 260C229.537 255.582 225.833 252 221.265 252C216.697 252 212.994 255.582 212.994 260C212.994 264.418 216.697 268 221.265 268C225.833 268 229.537 264.418 229.537 260Z" fill="black"/>
<path fill-rule="evenodd" clip-rule="evenodd" d="M221.265 188C215.555 188 210.926 183.523 210.926 178C210.926 172.477 215.555 168 221.265 168C226.976 168 231.605 172.477 231.605 178C237.315 178 241.944 182.477 241.944 188C241.944 193.523 237.315 198 231.605 198C225.894 198 221.265 193.523 221.265 188ZM179.907 228C174.197 228 169.568 223.523 169.568 218C169.568 212.477 174.197 208 179.907 208C185.618 208 190.247 212.477 190.247 218C195.957 218 200.586 222.477 200.586 228C200.586 233.523 195.957 238 190.247 238C184.536 238 179.907 233.523 179.907 228ZM188.179 218C188.179 213.582 184.475 210 179.907 210C175.339 210 171.636 213.582 171.636 218C171.636 222.418 175.339 226 179.907 226C184.475 226 188.179 222.418 188.179 218ZM229.537 178C229.537 173.582 225.833 170 221.265 170C216.697 170 212.994 173.582 212.994 178C212.994 182.418 216.697 186 221.265 186C225.833 186 229.537 182.418 229.537 178Z" fill="black"/>
<path fill-rule="evenodd" clip-rule="evenodd" d="M221.265 106C215.555 106 210.926 101.523 210.926 96C210.926 90.477 215.555 86 221.265 86C226.976 86 231.605 90.477 231.605 96C237.315 96 241.944 100.477 241.944 106C241.944 111.523 237.315 116 231.605 116C225.894 116 221.265 111.523 221.265 106ZM179.907 146C174.197 146 169.568 141.523 169.568 136C169.568 130.477 174.197 126 179.907 126C185.618 126 190.247 130.477 190.247 136C195.957 136 200.586 140.477 200.586 146C200.586 151.523 195.957 156 190.247 156C184.536 156 179.907 151.523 179.907 146ZM188.179 136C188.179 131.582 184.475 128 179.907 128C175.339 128 171.636 131.582 171.636 136C171.636 140.418 175.339 144 179.907 144C184.475 144 188.179 140.418 188.179 136ZM229.537 96C229.537 91.582 225.833 88 221.265 88C216.697 88 212.994 91.582 212.994 96C212.994 100.418 216.697 104 221.265 104C225.833 104 229.537 100.418 229.537 96Z" fill="black"/>
<path fill-rule="evenodd" clip-rule="evenodd" d="M306.05 516C300.339 516 295.71 511.523 295.71 506C295.71 500.477 300.339 496 306.05 496C311.76 496 316.389 500.477 316.389 506C322.1 506 326.729 510.477 326.729 516C326.729 521.523 322.1 526 316.389 526C310.679 526 306.05 521.523 306.05 516ZM264.692 556C258.981 556 254.352 551.523 254.352 546C254.352 540.477 258.981 536 264.692 536C270.402 536 275.031 540.477 275.031 546C280.742 546 285.371 550.477 285.371 556C285.371 561.523 280.742 566 275.031 566C269.321 566 264.692 561.523 264.692 556ZM272.963 546C272.963 541.582 269.26 538 264.692 538C260.124 538 256.42 541.582 256.42 546C256.42 550.418 260.124 554 264.692 554C269.26 554 272.963 550.418 272.963 546ZM314.321 506C314.321 501.582 310.618 498 306.05 498C301.482 498 297.778 501.582 297.778 506C297.778 510.418 301.482 514 306.05 514C310.618 514 314.321 510.418 314.321 506Z" fill="black"/>
<path fill-rule="evenodd" clip-rule="evenodd" d="M306.05 434C300.339 434 295.71 429.523 295.71 424C295.71 418.477 300.339 414 306.05 414C311.76 414 316.389 418.477 316.389 424C322.1 424 326.729 428.477 326.729 434C326.729 439.523 322.1 444 316.389 444C310.679 444 306.05 439.523 306.05 434ZM264.692 474C258.981 474 254.352 469.523 254.352 464C254.352 458.477 258.981 454 264.692 454C270.402 454 275.031 458.477 275.031 464C280.742 464 285.371 468.477 285.371 474C285.371 479.523 280.742 484 275.031 484C269.321 484 264.692 479.523 264.692 474ZM272.963 464C272.963 459.582 269.26 456 264.692 456C260.124 456 256.42 459.582 256.42 464C256.42 468.418 260.124 472 264.692 472C269.26 472 272.963 468.418 272.963 464ZM314.321 424C314.321 419.582 310.618 416 306.05 416C301.482 416 297.778 419.582 297.778 424C297.778 428.418 301.482 432 306.05 432C310.618 432 314.321 428.418 314.321 424Z" fill="black"/>
<path fill-rule="evenodd" clip-rule="evenodd" d="M306.05 352C300.339 352 295.71 347.523 295.71 342C295.71 336.477 300.339 332 306.05 332C311.76 332 316.389 336.477 316.389 342C322.1 342 326.729 346.477 326.729 352C326.729 357.523 322.1 362 316.389 362C310.679 362 306.05 357.523 306.05 352ZM264.692 392C258.981 392 254.352 387.523 254.352 382C254.352 376.477 258.981 372 264.692 372C270.402 372 275.031 376.477 275.031 382C280.742 382 285.371 386.477 285.371 392C285.371 397.523 280.742 402 275.031 402C269.321 402 264.692 397.523 264.692 392ZM272.963 382C272.963 377.582 269.26 374 264.692 374C260.124 374 256.42 377.582 256.42 382C256.42 386.418 260.124 390 264.692 390C269.26 390 272.963 386.418 272.963 382ZM314.321 342C314.321 337.582 310.618 334 306.05 334C301.482 334 297.778 337.582 297.778 342C297.778 346.418 301.482 350 306.05 350C310.618 350 314.321 346.418 314.321 342Z" fill="black"/>
<path fill-rule="evenodd" clip-rule="evenodd" d="M306.05 270C300.339 270 295.71 265.523 295.71 260C295.71 254.477 300.339 250 306.05 250C311.76 250 316.389 254.477 316.389 260C322.1 260 326.729 264.477 326.729 270C326.729 275.523 322.1 280 316.389 280C310.679 280 306.05 275.523 306.05 270ZM264.692 310C258.981 310 254.352 305.523 254.352 300C254.352 294.477 258.981 290 264.692 290C270.402 290 275.031 294.477 275.031 300C280.742 300 285.371 304.477 285.371 310C285.371 315.523 280.742 320 275.031 320C269.321 320 264.692 315.523 264.692 310ZM272.963 300C272.963 295.582 269.26 292 264.692 292C260.124 292 256.42 295.582 256.42 300C256.42 304.418 260.124 308 264.692 308C269.26 308 272.963 304.418 272.963 300ZM314.321 260C314.321 255.582 310.618 252 306.05 252C301.482 252 297.778 255.582 297.778 260C297.778 264.418 301.482 268 306.05 268C310.618 268 314.321 264.418 314.321 260Z" fill="black"/>
<path fill-rule="evenodd" clip-rule="evenodd" d="M306.05 188C300.339 188 295.71 183.523 295.71 178C295.71 172.477 300.339 168 306.05 168C311.76 168 316.389 172.477 316.389 178C322.1 178 326.729 182.477 326.729 188C326.729 193.523 322.1 198 316.389 198C310.679 198 306.05 193.523 306.05 188ZM264.692 228C258.981 228 254.352 223.523 254.352 218C254.352 212.477 258.981 208 264.692 208C270.402 208 275.031 212.477 275.031 218C280.742 218 285.371 222.477 285.371 228C285.371 233.523 280.742 238 275.031 238C269.321 238 264.692 233.523 264.692 228ZM272.963 218C272.963 213.582 269.26 210 264.692 210C260.124 210 256.42 213.582 256.42 218C256.42 222.418 260.124 226 264.692 226C269.26 226 272.963 222.418 272.963 218ZM314.321 178C314.321 173.582 310.618 170 306.05 170C301.482 170 297.778 173.582 297.778 178C297.778 182.418 301.482 186 306.05 186C310.618 186 314.321 182.418 314.321 178Z" fill="black"/>
<path fill-rule="evenodd" clip-rule="evenodd" d="M306.05 106C300.339 106 295.71 101.523 295.71 96C295.71 90.477 300.339 86 306.05 86C311.76 86 316.389 90.477 316.389 96C322.1 96 326.729 100.477 326.729 106C326.729 111.523 322.1 116 316.389 116C310.679 116 306.05 111.523 306.05 106ZM264.692 146C258.981 146 254.352 141.523 254.352 136C254.352 130.477 258.981 126 264.692 126C270.402 126 275.031 130.477 275.031 136C280.742 136 285.371 140.477 285.371 146C285.371 151.523 280.742 156 275.031 156C269.321 156 264.692 151.523 264.692 146ZM272.963 136C272.963 131.582 269.26 128 264.692 128C260.124 128 256.42 131.582 256.42 136C256.42 140.418 260.124 144 264.692 144C269.26 144 272.963 140.418 272.963 136ZM314.321 96C314.321 91.582 310.618 88 306.05 88C301.482 88 297.778 91.582 297.778 96C297.778 100.418 301.482 104 306.05 104C310.618 104 314.321 100.418 314.321 96Z" fill="black"/>
<path fill-rule="evenodd" clip-rule="evenodd" d="M51.6975 24C45.987 24 41.358 19.523 41.358 14C41.358 8.477 45.987 4 51.6975 4C57.408 4 62.037 8.477 62.037 14C67.7475 14 72.3765 18.477 72.3765 24C72.3765 29.523 67.7475 34 62.037 34C56.3265 34 51.6975 29.523 51.6975 24ZM10.3395 64C4.629 64 0 59.523 0 54C0 48.477 4.629 44 10.3395 44C16.05 44 20.679 48.477 20.679 54C26.3895 54 31.0185 58.477 31.0185 64C31.0185 69.523 26.3895 74 20.679 74C14.9685 74 10.3395 69.523 10.3395 64ZM18.6111 54C18.6111 49.582 14.9075 46 10.3395 46C5.77151 46 2.0679 49.582 2.0679 54C2.0679 58.418 5.77151 62 10.3395 62C14.9075 62 18.6111 58.418 18.6111 54ZM59.9691 14C59.9691 9.582 56.2655 6 51.6975 6C47.1295 6 43.4259 9.582 43.4259 14C43.4259 18.418 47.1295 22 51.6975 22C56.2655 22 59.9691 18.418 59.9691 14Z" fill="black"/>
<path fill-rule="evenodd" clip-rule="evenodd" d="M136.482 24C130.771 24 126.142 19.523 126.142 14C126.142 8.477 130.771 4 136.482 4C142.192 4 146.821 8.477 146.821 14C152.532 14 157.161 18.477 157.161 24C157.161 29.523 152.532 34 146.821 34C141.111 34 136.482 29.523 136.482 24ZM95.1237 64C89.4132 64 84.7842 59.523 84.7842 54C84.7842 48.477 89.4132 44 95.1237 44C100.834 44 105.463 48.477 105.463 54C111.174 54 115.803 58.477 115.803 64C115.803 69.523 111.174 74 105.463 74C99.7527 74 95.1237 69.523 95.1237 64ZM103.395 54C103.395 49.582 99.6917 46 95.1237 46C90.5557 46 86.8521 49.582 86.8521 54C86.8521 58.418 90.5557 62 95.1237 62C99.6917 62 103.395 58.418 103.395 54ZM144.753 14C144.753 9.582 141.05 6 136.482 6C131.914 6 128.21 9.582 128.21 14C128.21 18.418 131.914 22 136.482 22C141.05 22 144.753 18.418 144.753 14Z" fill="black"/>
<path fill-rule="evenodd" clip-rule="evenodd" d="M221.265 24C215.555 24 210.926 19.523 210.926 14C210.926 8.477 215.555 4 221.265 4C226.976 4 231.605 8.477 231.605 14C237.315 14 241.944 18.477 241.944 24C241.944 29.523 237.315 34 231.605 34C225.894 34 221.265 29.523 221.265 24ZM179.907 64C174.197 64 169.568 59.523 169.568 54C169.568 48.477 174.197 44 179.907 44C185.618 44 190.247 48.477 190.247 54C195.957 54 200.586 58.477 200.586 64C200.586 69.523 195.957 74 190.247 74C184.536 74 179.907 69.523 179.907 64ZM188.179 54C188.179 49.582 184.475 46 179.907 46C175.339 46 171.636 49.582 171.636 54C171.636 58.418 175.339 62 179.907 62C184.475 62 188.179 58.418 188.179 54ZM229.537 14C229.537 9.582 225.833 6 221.265 6C216.697 6 212.994 9.582 212.994 14C212.994 18.418 216.697 22 221.265 22C225.833 22 229.537 18.418 229.537 14Z" fill="black"/>
<path fill-rule="evenodd" clip-rule="evenodd" d="M306.05 24C300.339 24 295.71 19.523 295.71 14C295.71 8.477 300.339 4 306.05 4C311.76 4 316.389 8.477 316.389 14C322.1 14 326.729 18.477 326.729 24C326.729 29.523 322.1 34 316.389 34C310.679 34 306.05 29.523 306.05 24ZM264.692 64C258.981 64 254.352 59.523 254.352 54C254.352 48.477 258.981 44 264.692 44C270.402 44 275.031 48.477 275.031 54C280.742 54 285.371 58.477 285.371 64C285.371 69.523 280.742 74 275.031 74C269.321 74 264.692 69.523 264.692 64ZM272.963 54C272.963 49.582 269.26 46 264.692 46C260.124 46 256.42 49.582 256.42 54C256.42 58.418 260.124 62 264.692 62C269.26 62 272.963 58.418 272.963 54ZM314.321 14C314.321 9.582 310.618 6 306.05 6C301.482 6 297.778 9.582 297.778 14C297.778 18.418 301.482 22 306.05 22C310.618 22 314.321 18.418 314.321 14Z" fill="black"/>
</g>
<defs>
<clipPath id="clip0_495_5897">
<rect width="566" height="335" fill="white" transform="translate(0 566) rotate(-90)"/>
</clipPath>
</defs>
</svg>
